<svg width="15" height="13" viewBox="0 0 15 13" fill="none" xmlns="http://www.w3.org/2000/svg">
<path d="M3.45049 7.22767C3.75582 6.88933 4.52023 6.23308 5.15898 5.8848L6.72678 5.02994L3.3984 1.03375C3.29207 0.9061 3.3289 0.713114 3.47476 0.633583C3.88327 0.410838 4.37896 0.419971 4.77899 0.657615L9.54882 3.4912L10.1759 3.14926L11.3849 2.49005C12.2393 2.0242 13.1912 1.76571 14.1638 1.73544C14.5454 1.72357 14.7784 2.15075 14.5617 2.4651C14.0094 3.26631 13.2765 3.92647 12.4221 4.39231L11.2132 5.05152L10.586 5.39346L10.3844 10.9378C10.3674 11.4028 10.2449 11.749 9.83636 11.9718C9.6905 12.0513 9.37008 12.0531 9.32037 11.8946L7.76401 6.9322L6.19621 7.78706C5.55746 8.13534 4.59177 8.42245 4.14198 8.49584L4.08638 10.0243C4.07301 10.3919 3.92831 10.7424 3.67854 11.0124C3.51371 11.1906 3.21711 11.1165 3.15546 10.8817L2.542 8.54564L0.910574 6.76462C0.746623 6.58563 0.844981 6.29616 1.08404 6.25411C1.44627 6.1904 1.81934 6.25866 2.13555 6.4465L3.45049 7.22767Z" fill="#003AD2"/>
</svg>
