<svg width="16" height="20" viewBox="0 0 16 20" fill="none" xmlns="http://www.w3.org/2000/svg">
<path fill-rule="evenodd" clip-rule="evenodd" d="M4.9 0H11.07C13.78 0 15.97 1.06996 16 3.78985V18.9693C16 19.1393 15.96 19.3093 15.88 19.4592C15.75 19.6992 15.53 19.8792 15.26 19.9592C15 20.0392 14.71 19.9992 14.47 19.8592L7.99 16.6194L1.5 19.8592C1.351 19.9382 1.18 19.9892 1.01 19.9892C0.45 19.9892 0 19.5292 0 18.9693V3.78985C0 1.06996 2.2 0 4.9 0ZM4.22043 7.6196H11.7504C12.1804 7.6196 12.5304 7.26862 12.5304 6.82963C12.5304 6.38965 12.1804 6.03966 11.7504 6.03966H4.22043C3.79043 6.03966 3.44043 6.38965 3.44043 6.82963C3.44043 7.26862 3.79043 7.6196 4.22043 7.6196Z" fill="currentColor"/>
</svg>
