<svg width="20" height="20" viewBox="0 0 20 20" fill="none" xmlns="http://www.w3.org/2000/svg">
<path d="M4.4907 8.1375C4.88968 6.95787 5.65967 5.93151 6.69083 5.20483C7.722 4.47815 8.96166 4.08828 10.233 4.09083C11.6741 4.09083 12.977 4.59083 14.0003 5.40917L16.978 2.5C15.1634 0.954167 12.8381 0 10.233 0C6.19957 0 2.72726 2.24833 1.05762 5.54167L4.4907 8.1375Z" fill="#EA4335"/>
<path d="M13.6779 15.011C12.7484 15.5968 11.5682 15.9093 10.2328 15.9093C8.9666 15.9118 7.73162 15.5251 6.70275 14.8038C5.67388 14.0825 4.90324 13.0631 4.49995 11.8901L1.05493 14.446C1.90019 16.1179 3.2083 17.5246 4.83066 18.5064C6.45302 19.4882 8.32461 20.0057 10.2328 20.0001C12.7339 20.0001 15.1232 19.131 16.9131 17.5001L13.6787 15.011H13.6779Z" fill="#34A853"/>
<path d="M16.9132 17.5C18.7849 15.7933 20.0001 13.2533 20.0001 9.99997C20.0001 9.40831 19.9071 8.77247 19.7681 8.18164H10.2329V12.0458H15.7211C15.4508 13.345 14.7234 14.3508 13.6788 15.0108L16.9132 17.5Z" fill="#4A90E2"/>
<path d="M4.49994 11.8898C4.29133 11.2806 4.18535 10.6423 4.18614 9.99984C4.18614 9.34817 4.29273 8.72234 4.49056 8.13734L1.05748 5.5415C0.355156 6.92708 -0.00688999 8.4536 9.9304e-05 9.99984C9.9304e-05 11.5998 0.379563 13.1082 1.05492 14.4457L4.49994 11.8898Z" fill="#FBBC05"/>
</svg>
