<svg width="138" height="138" viewBox="0 0 138 138" fill="none" xmlns="http://www.w3.org/2000/svg">
<path d="M95.8848 112.224V120.559L70.6308 135.242L46.7568 121.47V113.107L72.0108 98.4517L95.8848 112.224Z" fill="#DEDFFB"/>
<path d="M95.8772 112.219L95.8717 120.568L70.626 135.238L70.6315 126.891L95.8772 112.219Z" fill="#DEDFFB"/>
<path d="M70.6314 126.891L70.6259 135.237L46.7629 121.462L46.7685 113.113L70.6314 126.891Z" fill="#E9E7FC"/>
<path d="M95.877 112.219L70.6313 126.891L46.7683 113.113L72.0168 98.4434L95.877 112.219Z" fill="#F3F1FC"/>
<path d="M75.5967 11.0408L75.2379 115.534C75.2379 116.252 74.7687 116.997 73.8027 117.549C71.8707 118.681 68.7243 118.681 66.7647 117.549C65.7987 116.997 65.3019 116.252 65.3295 115.507L65.6607 11.0132L75.5967 11.0408Z" fill="#AA6256"/>
<path d="M74.1174 8.98447C76.0687 10.1105 76.1046 11.9211 74.1616 13.0499C72.2213 14.176 69.0721 14.176 67.1208 13.0499C65.1888 11.9349 65.1805 10.1105 67.1208 8.98447C69.0611 7.85839 72.1882 7.86943 74.1174 8.98447Z" fill="#BF7D5A"/>
<path d="M125.859 6.93029L102.178 35.1927L96.575 31.9359L46.5086 60.8607L40.7954 57.5487L40.7402 41.3475L96.3818 9.2211V2.7627L120.145 3.6183L125.859 6.93029Z" fill="#003AD2"/>
<path d="M41.5957 98.6176L41.6233 105.076L17.8597 104.193L12.1465 100.881L35.8273 72.6184L41.4577 75.8752L91.4965 46.978L97.2097 50.29L97.2649 66.4912L41.5957 98.6176Z" fill="#72D561"/>
<path d="M102.167 35.2009L96.4536 31.8806L96.4343 25.4277L102.148 28.7453L102.167 35.2009Z" fill="#346AF7"/>
<path d="M102.084 6.0776L96.3708 2.75732L120.143 3.61844L125.856 6.93872L102.084 6.0776Z" fill="#6A92FB"/>
<path d="M102.101 12.5332L96.3902 9.21296L96.3708 2.75732L102.084 6.0776L102.101 12.5332Z" fill="#346AF7"/>
<path d="M41.5628 82.419L35.8496 79.0987L91.494 46.9751L97.2044 50.2926L41.5628 82.419Z" fill="#78E75A"/>
<path d="M41.5436 75.9389L41.5629 82.4194L97.2045 50.293L97.2514 66.4831L41.6071 98.6068L41.6264 105.087L17.8545 104.201L41.5436 75.9389Z" fill="#72D561"/>
<path d="M17.8543 104.201L12.1411 100.881L35.8302 72.6187L41.5434 75.9389L17.8543 104.201Z" fill="#78E75A"/>
<path d="M46.4588 44.6591L40.7456 41.3388L96.39 9.2124L102.1 12.5327L46.4588 44.6591Z" fill="#6A92FB"/>
<path d="M46.503 60.8719L40.7925 57.5516L40.7456 41.3394L46.4588 44.6596L46.503 60.8719Z" fill="#346AF7"/>
<path d="M102.084 6.07812L125.856 6.93925L102.167 35.2016L102.147 28.746L46.5031 60.8724L46.459 44.6602L102.101 12.5338L102.084 6.07812Z" fill="#003AD2"/>
<path d="M81.8088 68.9996C78.2319 68.9996 75.0468 70.3934 72.756 72.7532C70.3935 75.044 68.9969 78.2318 68.9969 81.8088C68.994 78.4125 67.6435 75.1561 65.242 72.7545C62.8404 70.353 59.584 69.0025 56.1877 68.9996C59.6929 68.9996 62.9497 67.534 65.2764 65.2791C67.6427 62.843 68.9757 59.5865 68.9969 56.1904C68.9969 59.6956 70.3935 62.9524 72.756 65.2791C75.1664 67.6623 78.4192 68.9991 81.8088 68.9996Z" fill="white"/>
</svg>
